<?xml version="1.0" standalone="no"?><!DOCTYPE svg PUBLIC "-//W3C//DTD SVG 1.1//EN" "http://www.w3.org/Graphics/SVG/1.1/DTD/svg11.dtd"><svg t="1555501751662" class="icon" style="" viewBox="0 0 1024 1024" version="1.1" xmlns="http://www.w3.org/2000/svg" p-id="13131" xmlns:xlink="http://www.w3.org/1999/xlink" width="200" height="200"><defs><style type="text/css"></style></defs><path d="M529.460389 861.300404l-52.05678-30.253203 94.157184-54.361223 52.05678 30.253203-94.157184 54.361223z" fill="#ff0000" p-id="13132"></path><path d="M500.595761 866.249048l-52.05678-30.253203 0.132949 0.073861 52.05678 30.253202-0.132949-0.07386" fill="#ff0000" p-id="13133"></path><path d="M500.72871 866.322908L448.67193 836.09925c0.42839 0.236353 0.85678 0.443162 1.299942 0.635199l52.05678 30.253202c-0.443162-0.192037-0.871552-0.398846-1.299942-0.635199" fill="#ff0000" p-id="13134"></path><path d="M502.028652 866.958107l-52.05678-30.253202 0.797692 0.295441 0.768148 0.251125 52.05678 30.253203-0.768148-0.251125-0.797692-0.295442" fill="#ff0000" p-id="13135"></path><path d="M503.594492 867.504674l-52.05678-30.253203a18.302597 18.302597 0 0 0 1.876053 0.428391l52.05678 30.253202a18.302597 18.302597 0 0 1-1.876053-0.42839" fill="#ff0000" p-id="13136"></path><path d="M505.470545 867.933064l-52.05678-30.253202a17.637853 17.637853 0 0 0 2.023774 0.236353l52.05678 30.253202a17.637853 17.637853 0 0 1-2.023774-0.236353" fill="#ff0000" p-id="13137"></path><path d="M507.494319 868.169417l-52.05678-30.253202a20.17865 20.17865 0 0 0 2.319215 0l52.05678 30.253202a20.17865 20.17865 0 0 1-2.319215 0" fill="#ff0000" p-id="13138"></path><path d="M509.813534 868.184189l-52.05678-30.253202a22.704674 22.704674 0 0 0 2.747605-0.265898l52.05678 30.253203a26.131795 26.131795 0 0 1-2.747605 0.265897" fill="#ff0000" p-id="13139"></path><path d="M512.561139 867.918292l-52.05678-30.253203a33.429198 33.429198 0 0 0 3.515753-0.753375L516.106436 867.1206a33.429198 33.429198 0 0 1-3.515753 0.753376" fill="#ff0000" p-id="13140"></path><path d="M516.106436 867.1206l-52.05678-30.253202a43.370802 43.370802 0 0 0 5.332718-1.846509l52.05678 30.253202A43.370802 43.370802 0 0 1 516.106436 867.1206" fill="#ff0000" p-id="13141"></path><path d="M521.40961 865.318407l-52.05678-30.253202a69.118523 69.118523 0 0 0 8.050779-4.018004l51.997692 30.253203a69.118523 69.118523 0 0 1-8.050779 4.018003" fill="#ff0000" p-id="13142"></path><path d="M389.746136 941.955915l-52.05678-30.253203a96.417311 96.417311 0 0 0 19.617311-14.47663l52.05678 30.253202a96.417311 96.417311 0 0 1-19.617311 14.476631" fill="#ff0000" p-id="13143"></path><path d="M409.363447 927.479284L357.306667 897.226082q1.757877-1.728332 3.2794-3.500981L412.701936 923.978304q-1.477207 1.772649-3.2794 3.50098" fill="#ff0000" p-id="13144"></path><path d="M412.701936 923.978304L360.586067 893.710329c0.709059-0.812464 1.373803-1.624928 2.023774-2.452164l52.05678 30.253203c-0.649971 0.827236-1.314714 1.6397-2.023774 2.452163" fill="#ff0000" p-id="13145"></path><path d="M414.666621 921.52614l-52.05678-30.253203c0.50225-0.649971 0.989729-1.314714 1.477207-1.964685l52.05678 30.253202c-0.457934 0.649971-0.945413 1.314714-1.477207 1.964686" fill="#ff0000" p-id="13146"></path><path d="M416.114284 919.561454L364.057504 889.278707c0.413618-0.590883 0.797692-1.166994 1.181766-1.757876l52.05678 30.253202c-0.384074 0.590883-0.768148 1.166994-1.181766 1.757877" fill="#ff0000" p-id="13147"></path><path d="M417.29605 917.803578l-52.05678-30.253203c0.339758-0.531795 0.649971-1.048817 0.960184-1.580612l52.056781 30.253203c-0.310214 0.531795-0.635199 1.048817-0.960185 1.580612" fill="#ff0000" p-id="13148"></path><path d="M418.256235 916.222966l-52.056781-30.253203 0.132949-0.221581 0.930641-1.669244L419.319824 914.391229l-0.930641 1.669244-0.132948 0.221581" fill="#ff0000" p-id="13149"></path><path d="M419.319824 914.391229l-52.05678-30.312291c0.339758-0.664743 0.679515-1.329486 1.0045-1.994229l52.056781 30.253202c-0.324986 0.664743-0.664743 1.329486-1.004501 1.99423" fill="#ff0000" p-id="13150"></path><path d="M420.324325 912.337911l-52.056781-30.253202c0.324986-0.694287 0.649971-1.388575 0.960185-2.082862l52.05678 30.253202c-0.310214 0.694287-0.635199 1.388575-0.960184 2.082862" fill="#ff0000" p-id="13151"></path><path d="M421.284509 910.255049l-52.05678-30.253202c0.310214-0.753376 0.620427-1.477207 0.915868-2.260127l52.056781 30.23843c-0.295441 0.768148-0.605655 1.477207-0.915869 2.274899" fill="#ff0000" p-id="13152"></path><path d="M422.200378 907.98015l-52.056781-30.23843c0.324986-0.827236 0.620427-1.669244 0.901097-2.526025L423.042386 905.527986c-0.280669 0.85678-0.576111 1.684016-0.901097 2.511252" fill="#ff0000" p-id="13153"></path><path d="M423.042386 905.527986l-51.997692-30.312291c0.324986-0.974957 0.635199-1.964686 0.915868-2.954414L424.017342 902.573572c-0.280669 1.004501-0.590883 1.99423-0.915868 2.954414" fill="#ff0000" p-id="13154"></path><path d="M424.017342 902.573572l-52.05678-30.327063c0.339758-1.226082 0.635199-2.466936 0.915869-3.737334l52.05678 30.253202c-0.280669 1.270398-0.576111 2.511252-0.915869 3.737334" fill="#ff0000" p-id="13155"></path><path d="M424.933211 898.762377L372.817342 868.509175c0.384074-1.802193 0.694287-3.619158 0.930641-5.495211l52.05678 30.253203q-0.35453 2.791922-0.93064 5.49521" fill="#ff0000" p-id="13156"></path><path d="M425.863851 893.267167l-52.05678-30.253203a77.139758 77.139758 0 0 0 0.620427-10.34045l52.05678 30.253203a77.139758 77.139758 0 0 1-0.620427 10.34045" fill="#ff0000" p-id="13157"></path><path d="M295.603724 996.317138L243.546944 966.063935l94.142412-54.361223 52.05678 30.253203-94.142412 54.361223z" fill="#ff0000" p-id="13158"></path><path d="M295.677585 1024L243.620805 993.76157l-0.073861-27.697635 52.05678 30.253203 0.073861 27.682862zM426.484278 883.000577l-52.05678-30.253203-1.905597-673.621234 52.05678 30.253202 1.905597 673.621235z" fill="#ff0000" p-id="13159"></path><path d="M424.519593 209.379342l-51.997692-30.253202q0-18.834391-8.257588-23.517138l52.05678 30.23843Q424.519593 190.559723 424.519593 209.379342" fill="#ff0000" p-id="13160"></path><path d="M621.416535 30.253203v27.697634L527.333211 112.267744a78.79423 78.79423 0 0 0-26.589729 24.787536 59.974611 59.974611 0 0 0-10.163185 34.167801L492.471122 844.962493q0 18.834391 10.34045 22.364916t26.589729-5.908829l94.157184-54.361223 0.07386 27.697634L295.677585 1024l-0.073861-27.682862 94.142412-54.361223q20.474091-11.817657 28.643047-25.95453t8.095095-33.000808l-1.905597-673.606463q0-18.834391-8.257588-23.53191T387.589414 192.967571l-94.142412 54.361223v-27.697634z" fill="#ff0000" p-id="13161"></path><path d="M293.476546 247.328794L241.419766 217.075591 241.345906 189.377957l52.05678 30.253203 0.07386 27.697634z" fill="#ff0000" p-id="13162"></path><path d="M293.402686 219.63116L241.345906 189.377957 569.359754 0l52.056781 30.253203-328.013849 189.377957z" fill="#ff0000" p-id="13163"></path></svg>