<?xml version="1.0" standalone="no"?><!DOCTYPE svg PUBLIC "-//W3C//DTD SVG 1.1//EN" "http://www.w3.org/Graphics/SVG/1.1/DTD/svg11.dtd"><svg t="1555501768930" class="icon" style="" viewBox="0 0 1024 1024" version="1.1" xmlns="http://www.w3.org/2000/svg" p-id="14079" xmlns:xlink="http://www.w3.org/1999/xlink" width="200" height="200"><defs><style type="text/css"></style></defs><path d="M409.399916 967.722677l-52.493723-30.507135 0.34261 0.208545 52.493723 30.507135-0.34261-0.208545" fill="#ff0000" p-id="14080"></path><path d="M409.742526 967.931222l-52.493723-30.507135a31.281731 31.281731 0 0 0 3.336717 1.623671l52.493723 30.507135a31.281731 31.281731 0 0 1-3.336717-1.623671" fill="#ff0000" p-id="14081"></path><path d="M413.079243 969.554893l-52.493723-30.507135c0.431986 0.178753 0.849076 0.357505 1.295958 0.506466 1.206581 0.461778 2.442954 0.863972 3.694223 1.221477L418.069424 971.223252c-1.251269-0.357505-2.487642-0.774595-3.709119-1.221477-0.431986-0.148961-0.849076-0.327713-1.281062-0.506466" fill="#ff0000" p-id="14082"></path><path d="M418.069424 971.223252l-52.493723-30.447551a57.588176 57.588176 0 0 0 6.330827 1.489606L424.400251 972.712858a57.588176 57.588176 0 0 1-6.330827-1.489606" fill="#ff0000" p-id="14083"></path><path d="M424.400251 972.712858l-52.493723-30.507135a68.521886 68.521886 0 0 0 6.941565 0.819283l52.493723 30.492239a64.589325 64.589325 0 0 1-6.941565-0.804387" fill="#ff0000" p-id="14084"></path><path d="M431.341816 973.547038l-52.493723-30.49224a76.953057 76.953057 0 0 0 7.880017 0l52.493723 30.507136a72.85664 72.85664 0 0 1-7.880017-0.074481" fill="#ff0000" p-id="14085"></path><path d="M439.221833 973.621518l-52.493723-30.507135a88.571986 88.571986 0 0 0 9.429207-0.938452L448.695728 972.712858a84.907554 84.907554 0 0 1-9.429207 0.953348" fill="#ff0000" p-id="14086"></path><path d="M448.695728 972.712858l-52.538411-30.536927a112.599334 112.599334 0 0 0 12.14029-2.606811l52.493723 30.507135A108.964695 108.964695 0 0 1 448.695728 972.712858" fill="#ff0000" p-id="14087"></path><path d="M460.79133 970.076255l-52.493723-30.507135a152.893182 152.893182 0 0 0 18.50091-6.375515L479.29224 963.775221a153.77205 153.77205 0 0 1-18.50091 6.375514" fill="#ff0000" p-id="14088"></path><path d="M479.29224 963.775221l-52.493723-30.581616a241.316207 241.316207 0 0 0 28.138661-14.106571 261.589747 261.589747 0 0 0 53.134254-40.770522l52.493723 30.507135a261.589747 261.589747 0 0 1-53.134254 40.770523 243.639992 243.639992 0 0 1-28.138661 14.181051" fill="#ff0000" p-id="14089"></path><path d="M560.565155 908.868336l-52.493723-30.507136q7.924705-7.835329 15.447216-16.48994l52.493723 30.507135q-7.448031 8.639716-15.447216 16.489941" fill="#ff0000" p-id="14090"></path><path d="M576.012371 892.378395l-52.493723-30.507135q5.854152-6.718124 11.469968-13.957611l52.493723 30.507136q-5.600919 7.209694-11.469968 13.95761" fill="#ff0000" p-id="14091"></path><path d="M587.482339 878.420785l-52.493723-30.507136q4.975285-6.464891 9.801609-13.302183l52.493723 30.507135q-4.796532 6.837293-9.801609 13.302184" fill="#ff0000" p-id="14092"></path><path d="M597.283948 865.118601l-52.493723-30.507135q4.468819-6.479787 8.937637-13.331976l52.493723 30.507136q-4.379442 6.837293-8.937637 13.331975" fill="#ff0000" p-id="14093"></path><path d="M606.206689 851.786626l-52.493723-30.507136q3.277134-5.139141 6.479787-10.427243c0.625635-1.042724 1.236373-2.085449 1.847112-3.143069l52.493723 30.507135-1.847112 3.143069c-2.130137 3.560159-4.290066 7.045837-6.479787 10.427244" fill="#ff0000" p-id="14094"></path><path d="M614.533588 838.156729l-52.493723-30.507136q3.709119-6.345722 7.090525-12.706341l52.493723 30.49224q-3.36651 6.360619-7.090525 12.721237" fill="#ff0000" p-id="14095"></path><path d="M621.624113 825.435492l-52.493723-30.49224q3.217549-6.047801 6.122282-12.095602L627.746395 813.324993q-2.904732 6.032905-6.122282 12.080706" fill="#ff0000" p-id="14096"></path><path d="M627.746395 813.324993L575.312256 782.84765q2.860044-5.958425 5.422167-11.827473l52.493723 30.507135q-2.562123 5.958425-5.422167 11.827473" fill="#ff0000" p-id="14097"></path><path d="M633.168562 801.527312L580.674839 771.020177q2.562123-5.958425 4.871012-11.91685l52.493723 30.507135q-2.30889 5.958425-4.871012 11.91685" fill="#ff0000" p-id="14098"></path><path d="M638.039574 789.640254l-52.493723-30.507135q2.368474-6.181866 4.468819-12.348836l52.493723 30.507136q-2.055657 6.16697-4.468819 12.348835" fill="#ff0000" p-id="14099"></path><path d="M642.463704 777.291419l-52.493723-30.507136c1.489606-4.468819 2.860044-8.937637 4.096417-13.406455l52.493723 30.507135c-1.236373 4.468819-2.606811 8.937637-4.096417 13.406456" fill="#ff0000" p-id="14100"></path><path d="M646.560121 763.899859l-52.493723-30.507135q2.145033-7.686368 3.768704-15.35784l52.493723 30.507135q-1.638567 7.656576-3.768704 15.35784" fill="#ff0000" p-id="14101"></path><path d="M650.328825 748.542019L597.835102 717.990195q2.145033-10.010154 3.440991-20.005411l52.493723 30.507135q-1.295957 9.995258-3.440991 20.005412" fill="#ff0000" p-id="14102"></path><path d="M653.769816 728.536607l-52.493723-30.507135a236.847388 236.847388 0 0 0 1.96628-31.058289L655.750992 697.478318a236.936764 236.936764 0 0 1-1.96628 31.058289" fill="#ff0000" p-id="14103"></path><path d="M353.77802 1013.870678L301.224713 983.363542q-41.15782-23.952868-41.411053-113.627162l52.493723 30.507136q0.238337 89.644502 41.470637 113.627162" fill="#ff0000" p-id="14104"></path><path d="M655.736096 697.478318l-52.493723-30.507135-1.564087-551.005339 52.493723 30.507135 1.564087 551.005339z" fill="#ff0000" p-id="14105"></path><path d="M654.172009 146.458083L601.678286 115.965844q0-19.007375-8.401379-23.699635l52.493723 30.507135q8.356691 4.69226 8.401379 23.684739" fill="#ff0000" p-id="14106"></path><path d="M591.63834 116.531894l-52.493723-30.507135L688.135031 0l52.493723 30.507135-148.990414 86.024759z" fill="#ff0000" p-id="14107"></path><path d="M591.712821 144.462011L539.233994 113.954875l-0.089377-27.930116 52.493723 30.507135 0.074481 27.930117zM312.307383 900.243516L259.81366 869.73638l-1.578983-555.518845 52.493723 30.507135 1.578983 555.518846z" fill="#ff0000" p-id="14108"></path><path d="M310.7284 344.72467l-52.493723-30.507135q0-18.977583-8.386483-23.684739l52.493723 30.507135q8.326899 4.707156 8.386483 23.684739" fill="#ff0000" p-id="14109"></path><path d="M252.425213 312.370423L199.93149 281.863288l182.819371-105.5386 52.493723 30.507135L252.425213 312.370423z" fill="#ff0000" p-id="14110"></path><path d="M252.499694 340.30054L200.005971 309.793404 199.93149 281.863288l52.493723 30.507135 0.074481 27.930117z" fill="#ff0000" p-id="14111"></path><path d="M740.658546 30.507135v27.930117l-24.876424 14.389596a80.096126 80.096126 0 0 0-26.991664 25.099865 60.194987 60.194987 0 0 0-10.308075 34.484383l1.564086 550.767002q0.268129 94.962396-55.383559 181.731958t-125.856829 127.361332q-74.361142 43.004931-130.295855 27.721571t-56.202843-119.749443l-1.578983-555.518846q0-18.962687-8.386483-23.684739t-29.092009 7.284175l-20.750214 11.916849v-27.930116L435.289272 206.831823v27.930116l-20.750214 11.91685A80.140814 80.140814 0 0 0 387.621873 271.823342a60.463116 60.463116 0 0 0-10.293179 34.484384l1.578983 555.786975q0.268129 94.977292 35.48242 107.966658t93.070596-20.422501q61.982515-35.750549 105.255575-108.33906T655.750992 697.478318l-1.578983-551.020235q0-19.007375-8.401379-23.684739t-29.121801 7.299071L591.697925 144.491803V116.531894z" fill="#ff0000" p-id="14112"></path></svg>