<?xml version="1.0" standalone="no"?><!DOCTYPE svg PUBLIC "-//W3C//DTD SVG 1.1//EN" "http://www.w3.org/Graphics/SVG/1.1/DTD/svg11.dtd"><svg t="1555501199547" class="icon" style="" viewBox="0 0 1024 1024" version="1.1" xmlns="http://www.w3.org/2000/svg" p-id="6448" xmlns:xlink="http://www.w3.org/1999/xlink" width="200" height="200"><defs><style type="text/css"></style></defs><path d="M600.746667 597.333333c27.306667 0 51.2-23.893333 51.2-51.2v-85.333333l-10.24 105.813333-92.16-44.373333v23.893333c0 27.306667 23.893333 51.2 51.2 51.2z" fill="#ff0000" p-id="6449"></path><path d="M600.746667 597.333333c27.306667 0 51.2-23.893333 51.2-51.2V307.2c0-27.306667-23.893333-51.2-51.2-51.2s-51.2 23.893333-51.2 51.2v238.933333c0 27.306667 23.893333 51.2 51.2 51.2z" fill="#ff0000" p-id="6450"></path><path d="M839.68 180.906667c3.413333-23.893333-6.826667-44.373333-20.48-61.44-13.653333-17.066667-37.546667-27.306667-58.026667-27.306667-40.96 0-75.093333 30.72-78.506666 71.68l-6.826667 92.16c6.826667 17.066667 10.24 34.133333 10.24 51.2v238.933333c0 47.786667-37.546667 85.333333-85.333333 85.333334-30.72 0-58.026667-17.066667-71.68-40.96-17.066667 20.48-37.546667 34.133333-64.853334 37.546666V682.666667c0 10.24-6.826667 17.066667-17.066666 17.066666s-17.066667-6.826667-17.066667-17.066666v-71.68l64.853333-105.813334c10.24-17.066667 10.24-34.133333 6.826667-47.786666-6.826667-17.066667-20.48-30.72-40.96-40.96-34.133333-20.48-64.853333-3.413333-85.333333 20.48l-3.413334 3.413333c-3.413333 3.413333-6.826667 6.826667-6.826666 10.24l-146.773334 242.346667c20.48 71.68 64.853333 136.533333 126.293334 174.08V955.733333c0 10.24 6.826667 17.066667 17.066666 17.066667h307.2c10.24 0 17.066667-6.826667 17.066667-17.066667v-54.613333c75.093333-27.306667 102.4-122.88 102.4-201.386667v-116.053333l51.2-402.773333zM348.16 413.013333V324.266667c0-17.066667 3.413333-34.133333 10.24-47.786667l-13.653333-153.6C341.333333 81.92 307.2 51.2 262.826667 51.2c-20.48 0-40.96 10.24-58.026667 27.306667-13.653333 13.653333-20.48 37.546667-20.48 58.026666l23.893333 443.733334v54.613333l126.293334-208.213333c6.826667-3.413333 10.24-6.826667 13.653333-13.653334z" fill="#ff0000" p-id="6451"></path><path d="M477.866667 382.293333c13.653333 10.24 27.306667 20.48 37.546666 30.72V324.266667c0-37.546667-30.72-68.266667-68.266666-68.266667s-68.266667 30.72-68.266667 68.266667v58.026666c30.72-17.066667 68.266667-20.48 98.986667 0zM515.413333 539.306667l-30.72 47.786666c17.066667-10.24 27.306667-27.306667 30.72-47.786666z" fill="#ff0000" p-id="6452"></path></svg>